<?xml version="1.0" encoding="utf-8"?>
<!-- Generator: Adobe Illustrator 27.0.0, SVG Export Plug-In . SVG Version: 6.00 Build 0)  -->
<svg version="1.1" id="Layer_2_00000174565337698135002280000006829484218476170388_"
	 xmlns="http://www.w3.org/2000/svg" xmlns:xlink="http://www.w3.org/1999/xlink" x="0px" y="0px" viewBox="0 0 324.3 470"
	 style="enable-background:new 0 0 324.3 470;" xml:space="preserve">
<style type="text/css">
	.st0{fill:#FFFFFF;}
	.st1{fill:#078080;}
	.st2{fill:#2BABAD;}
</style>
<g id="Layer_4">
	<g>
		<g>
			<polygon class="st0" points="208.3,88.5 233.6,93.1 278.7,106 317.6,118.4 322.1,119.4 323.1,121.5 313.8,137.9 304.2,156.2 
				290.6,189.7 279.1,227.5 274,252.8 270.8,269 267.6,299.2 265.5,340.9 264.9,365 260.8,399.8 250.7,439 240.2,462.7 237.6,468.4 
				235.1,468.7 207.4,459 188.2,453.9 163.3,446.3 135.4,439.9 117.2,435.5 99.4,432.4 90.9,369.8 179.8,384 191.4,337.9 202.8,262 
							"/>
			<path class="st1" d="M284.3,211.8c-6.8-36.5-75.8-78.8-94.7-41.4c6.8,62.2,11,156.1-7.9,216.3c-5.2,0-95.2-17.2-98.2-12.4
				c-4.1,13.6-13.8,40.9-20,53.6c53.3,3.1,123.4,26.8,174.1,40.5C280.2,390.6,255.1,293.5,284.3,211.8L284.3,211.8z"/>
		</g>
		<g>
			<polygon class="st0" points="183.6,141.5 186.7,116.1 194.1,78.2 202,47.1 211.6,24 210.6,20.1 194.4,18.1 163.1,12.8 123.7,8.5 
				95.9,6.3 61.4,4.5 37.3,4.9 33,7 27.6,24.3 67.9,87.4 			"/>
			<path class="st2" d="M191.1,288.6c-0.5-42.8-12.3-91.6-8.3-134.3c-4.5-71.7-76.4-147-152.8-137.1C15.4,57,6,101.8,4.5,144.2
				C4.6,213,23,296.5,0.6,363.8c55.2-1.3,124.1,4.2,177.9,15.2C185.8,350.8,192.8,318,191.1,288.6z"/>
			<ellipse class="st1" cx="94.6" cy="182.3" rx="36.9" ry="37.6"/>
		</g>
		<g>
			<path d="M131.9,423.6C131.9,423.6,131.9,423.6,131.9,423.6L131.9,423.6z"/>
			<path d="M323.4,120.4c1.3-2-2.1-2.3-3.3-3.1c0,0-1.5-1-2.5-1c-0.5,0-1,0.2-1.5,0c-6-3-12.4-4.5-18.7-7
				c-14.7-3.3-28.5-9.4-43.4-12.3c-10.6-2.7-21.5-6.5-32.5-8.3v0c-0.9,0.2-1.6-0.7-2.6-0.5c-0.5,0-1,0.3-1.4,0.1
				c-1.2-0.7-2.7-0.5-3.9-1.2c-6.1-1.7-12.6-3-18.9-4.1C197,76,198.5,70,200,62.6c0.9-1.1,0.6-2.5,0.7-3.8c0.8-2.3,1.7-4.3,2.6-6.5
				c0.5-4.3,13.2-31.2,8.9-31.1c1.1-3-6.5-3.3-7.7-3c-9.5-2.7-19.7-4.2-29.7-5.4v0c-11-1-22.5-4.1-33.9-4.6v0
				c-11.1-0.6-22.6-3.3-34-3.3l0,0v0C95.8,4.8,84.1,2.7,72.7,3.3c0,0-1.7-0.3-2.7,0c-0.5,0.1-0.9,0.5-1.4,0.4
				c-2.1-0.2-4-0.5-6.1-0.6C58.4,3.6,33.9,1.4,34.4,6c-3.3,0.2-3,5.4-5.6,7.7c-1.1,2-0.9,3.5-1.4,5.4c-0.6,1.7-1.9,3.8-1.6,5.7
				c-2.8,4.7-5,10.5-5.8,15.9c-0.4,0.7,0.1,1.6-0.7,1.9c-0.7,1.1-0.7,3.4-1,5c-1.3,3-2.5,5.9-2.6,9.2c-0.5,1.8-1.6,4-1,5.8
				c-0.8,0.8-0.9,1.9-1.2,3c-1.5,4.3-2.9,8.9-3,13.4c-0.3,0.7,0.2,1.5-0.6,2c-0.6,1.2-0.4,3.8-0.6,5.5c-0.9,3-1.8,5.8-1.6,9
				c-0.4,1.8-1.1,4.2-0.4,5.9c-1.2,2.7-1.8,6-2.1,9c-0.3,2.6-1.1,5.2-0.6,7.7c-0.3,0.7,0.3,1.5-0.4,2c-0.6,1.5,0.4,3.2,0.1,4.7l0,0
				c-0.7,3.4-1.5,6.6-0.9,9.9c-0.1,1.8-0.7,4.2,0.1,5.9c-1,2.8-1.2,6.1-1.2,9.1c0,2.6-0.7,5.3,0.1,7.7c-0.2,0.8,0.5,1.5-0.2,2.1
				c-0.4,2.5,1.2,6.4-0.1,9.1c-0.2,1.9,0.6,3.7,0.7,5.5c0,1.8-0.4,4.3,0.7,5.9c-0.6,2.9-0.5,6.2-0.3,9.2c0.2,2.6-0.1,5.3,0.9,7.7
				c-0.1,0.8,0.6,1.4,0,2.1c-0.2,1.2,0.5,2.4,0.8,3.6c0.3,4.1-0.3,7.2,1.1,10.9c0.2,1.8,0,4.3,1.1,5.8c-0.5,5.4,0,11.5,1.3,16.8
				c-0.1,0.8,0.7,1.4,0,2c-0.3,1.5,1,3,1,4.6l0,0c-0.1,3.4-0.4,6.6,0.7,9.8c0.1,1.8-0.2,4.3,0.8,5.8c-0.7,5.4-0.7,11.5,0.2,16.8
				c-0.2,0.8,0.5,1.5-0.1,2c-0.4,1.5,0.7,3.1,0.6,4.6l0,0c-0.4,3.7-0.9,6.3-0.2,9.8c-0.1,1.8-0.6,4.2,0.2,5.8
				c-0.6,0.9-0.5,2-0.7,3.2c-0.7,4.4-1.6,9.1-1.3,13.4c-0.3,0.7,0.3,1.5-0.4,2c-0.6,1.4-0.5,7.5-1.5,8.9c-0.6,1.8-0.2,3.7-0.5,5.4
				c-0.4,1.8-1.3,4-0.8,5.8c-2.2,5-3.9,10.8-4.6,16.1c-0.4,0.7,0.1,1.5-0.7,1.9c-0.8,2.4-2.4,10.4,0.1,10.9c0.4,1,1.6-0.1,2.5,0.2
				c1.7-0.1,2.3,0,3.7,0.1c0.7-0.3,1.2,0.1,1.8,0.3c1.7,0.2,3.1-0.6,4.7-0.7c1.6,0,3.7,0.4,5-0.5c4.6,1,9.9,1.3,14.5,0.6
				c0.7,0.2,1.3-0.5,1.8,0.2c1,0.4,2-0.2,3.1-0.4c1.9,0.3,3.3-0.1,4.7,0.7c1.6,0.3,3.2-0.4,4.7-0.4c1.6,0.1,3.7,0.6,5.1-0.2
				c2.4,0.9,5.2,1.2,7.8,1.3c2.2,0.1,4.5,0.8,6.6,0.2c0.7,0.2,1.3-0.4,1.7,0.3c0.9,0.4,2,0,3-0.2c2,0.4,3.3,0,4.8,0.9
				c2,0.4,3.9-0.5,5.8,0.1c-1.3,4.3-2.7,8.8-3.2,13.3c0.1,0.5-0.1,0.8-0.5,1c-0.6,1-0.7,3.2-1,4.8c-0.5,1.3-0.8,2.7-1.8,3.7
				c-0.8,1.7-0.7,3.6-1.3,5.3c-0.7,1.7-1.9,3.8-1.6,5.6c-2.9,4.6-5.4,10.1-6.9,15.3c-0.5,0.6-0.1,1.5-1,1.8c-1,1.2-0.7,3.1-1.4,4.4
				c-0.1,1-2.4,4.8-0.3,5.4c1.2,1.9,4.7,1.8,7,2.3c2.9,1.5,6.4,0.2,9.6,1.2c0.7,0.2,1.2-0.8,1.7-0.1c4.1,1.5,8.5,1.7,12.7,2.7
				c0.8-0.3,1.7-0.1,2.5-0.2c0.3,0.2,0.6,0.7,1.1,0.7h0c1,0.2,3.8-0.2,5.3,0.6c0.7-0.1,1.2,0.3,1.7,0.7c1.6,0.6,3.2,0.1,4.7,0.3
				c1.5,0.3,3.6,1.2,5,0.5c2.2,1.2,5,1.9,7.6,2.4c2.2,0.4,4.3,1.4,6.5,1.1c0.6,0.3,1.4-0.2,1.7,0.6c0.9,0.6,3.3,0.5,4.9,0.7
				c1.9,0.5,3.4,1.6,5.4,1.8c2.3-0.7,4.8,1.7,7.1,0.8c2.2,1.3,4.9,2.2,7.4,2.8c2.2,0.5,4.3,1.6,6.5,1.4c0.6,0.3,1.4-0.2,1.7,0.6
				c1.1,0.8,2.8,0.1,4,0.6l0,0c1.2,0.6,2.5,0.6,3.5,1.6c1.5,0.7,3.2,0.4,4.7,0.8c1.5,0.5,3.4,1.5,5,1c4.1,2.3,9.2,4.1,13.8,4.7
				c0.6,0.4,1.4-0.1,1.6,0.7c1.1,0.8,2.8,0.2,4,0.7l0,0c1.2,0.7,2.5,0.7,3.4,1.7c1.5,0.8,3.2,0.5,4.7,0.9c1.5,0.5,3.4,1.6,5,1.1
				c2.1,1.5,4.7,2.5,7.3,3.2c2.1,0.7,4.2,1.9,6.4,1.8c0.6,0.4,1.4-0.1,1.6,0.7c1.1,0.8,2.8,0.3,4,0.8c0.8,0.1,3.7,1.1,4.4-0.3
				c1.9,1.6,3.9-3.4,3.9-3.4c4.8-12,11.3-24,14.4-36.8c3.1-12.8,7.8-26,8.4-39.5c1.7-13.5,3.9-27.7,3.8-41.6
				c0.3-12.8,1.8-26.3,1.5-39.3c0.1-11.8,2.6-24,3.4-35.9c-0.2-1.1,0.6-1.9,0.3-3c-0.1-0.5-0.3-1.1-0.2-1.6
				c1.5-5.5,2.3-11.1,3.5-16.6c1.6-6.7,2.8-13.5,4.2-20.1c-0.3-2,0.9-4.4,1.5-6c3.1-11,7.3-22.1,9.8-33.1
				c4.7-10.4,8.9-21.3,13.4-31.8c4.6-11.9,12.1-23.1,17.9-34.8C322.8,125.6,325.6,120.8,323.4,120.4z M204.5,288.1
				c3.9-16.4,3.3-33.6,5.3-50.1c0.5,0.4,0.7,1,1.2,1.3c2.6,1.2,2.9,4.7,5.1,6.2c0.3,2.2,1.4,4.4,1.7,6.6c1,3.4,1.3,6.9,1.8,10.3
				c0.3,0.4,0.2,0.8-0.2,1.1c-0.4,1.5,0.4,3.1,0.2,4.6l0,0c-1.1,3.7-2.2,5.7-2.9,9.3c-0.7,1.7-2.2,3.5-2.3,5.3
				c-3.3,3.1-6.4,6.7-10.1,9.4C205.1,290.8,204.5,289.5,204.5,288.1z M198.3,329.2c1.6-10.6,4.7-21.3,5.7-32.2
				c11.4-5.9,19.2-18.7,19.5-31.6c-0.9-4.5,0.8-9.6-1.5-13.9c-1.6-6.8-5.3-13-10.3-17.7c-0.8-0.8-2.1-1.3-1.6-2.6
				c0.9-19.4,1.4-38.4,0.5-57.9c-1-12.9,0.4-26.4,1-39.5c0.4-9.2,3.1-18.4,5.9-27.3c2.9,0.1,5.7,1.6,8.5,1.8v0
				c0.9-0.2,1.5,0.7,2.4,0.5c0.4,0,0.9-0.3,1.4-0.1c0.9,0.4,1.9,0.9,2.9,0.9c7.9,3,16.7,5.2,25,7c2.2,1.2,4.4,0.4,6.5,1.8
				c1.4,0,2.4,1.1,3.8,1.4c1.1,0.1,2,0.7,3,1.1c1.1,0.3,2.3,0.2,3.3,0.7c-3.1,8-4.1,18.3,0.2,26c1.1-0.1,1,1.1,1.6,1.7
				c0.5,0.7,1.6,0.8,2,1.6c0.6,0.8,1.2,1.7,2.2,2.2c0.5,0.7,1,1.5,1.7,1.9c0.8,0.4,1.5,1,2.2,1.6c0.9,0.5,2,0.6,2.8,1.3
				c-1.2,2.2-3.5,8-4.7,10.9c-0.2,1.2-1.2,2.1-1.2,3.3c-0.1,1.1-1,1.8-1,2.9c0,0.5,0.1,1.1-0.2,1.7c-5.5,11.8-10.4,24.8-12.5,37.7
				c-4.2,12.3-8,25.7-8.8,38.7c-3.1,10.9-3.9,22.4-5.3,33.8c0.4,1.9-0.3,3.7,0.3,5.6c-0.2,1.2-0.6,2.5-0.4,3.7
				c-1.8,10.1-1.6,20.9-1.8,31.2c0.3,12.9-1.9,26.3-2.3,39.4c-0.3,12.7-4.1,26.8-5.6,39.5c-0.7,1.1-0.5,2.3-0.4,3.5
				c-0.3,0.8-0.5,1.6-0.9,2.4c0.1,1.3-0.9,2.2-1.2,3.5c0,1-0.6,1.8-0.9,2.7c-0.2,1-0.1,2.1-0.6,3c-5.6-1.7-11.5-1-17,0.4
				c-0.2,0.1-0.4,0.4-0.6,0.5c-0.2,0.5-0.7,0-1,0.5c-0.1,0.2-0.2,0.6-0.4,0.6c-0.5,0-1-0.1-1.2,0.4c-0.4,0-0.9-0.3-1.2,0.1
				c-0.2,0.2-0.3,0.2-0.6,0.1c-1.2,0.9-2.8,1.6-4.3,2.5c-0.4,0.3-0.5,1-1.1,1.1c-0.7,0.3-1,1.2-1.8,1.4c-0.1,0.1-0.2,0.5-0.2,0.6
				c-0.4,0.7-1.4,0.9-1.7,1.7c-0.2,0.6-0.4,1.3-1,1.6c-0.6,0.7-1.4,1.2-1.7,2.1c-0.6,0.5-1.3,1-1.7,1.7c-0.3,0.8-1,1.4-1.5,2.1
				c-0.5,0.8-0.5,1.8-1.1,2.6c-4.1-1.5-8.3-2.4-12.4-3.6c-0.5-0.3-1-0.5-1.6-0.4c-0.8,0.2-1.3-0.7-2.1-0.5c-0.4,0-0.9,0.3-1.2,0.1
				c-5.1-2.4-10.5-3.4-15.8-5.3c-3-0.2-6-1.8-8.9-1.8c-0.8-0.8-1.9-0.3-2.8-0.3c-0.8-0.4-1.7-0.9-2.6-0.8
				c-6.8-2.8-14.6-4.1-21.8-5.5v0c-1,0.1-1.9-0.6-2.9-0.6c-1.3,0.3-2.5,0-3.8-0.4c-0.7-0.3-1.4-0.4-2.2-0.4c-1-0.4-2-1-3.1-1.1
				c-1,0-1.9-0.5-2.9-0.8c-1.2-0.2-2.4,0-3.5-0.4c1.4-7.1,0.9-15.1-2.8-21.5l0.1-0.1c-0.8-0.8-0.9-2.1-1.8-2.9
				c-1.2-0.6-1.7-1.9-2.6-2.9c-1.4-1.4-2.6-3.3-4.5-4.2c-1.5-1.5-3.5-1.8-5.4-2.5c0,0,0.1-0.1,0.1-0.2c-0.1-0.1-0.1-0.1-0.2-0.2
				c1-2.9,1.8-5.9,2.2-8.9c10.1,1.8,20.5,4.2,30.5,4.8c3.6,0.7,7,2.1,10.8,2.1c8.7,1.7,17.6,3.8,26.3,4c5.2,1.8,10.4,2.3,15.8,3.6
				c2.4-8.1,6-16.1,6.8-24.4C193.4,354.6,196.2,341.7,198.3,329.2z M187.2,437.8C187.2,437.9,187.2,437.9,187.2,437.8
				C187.2,437.9,187.2,437.8,187.2,437.8z M187.1,437.9C187.1,437.9,187.1,437.9,187.1,437.9L187.1,437.9z M186.3,440.7L186.3,440.7
				L186.3,440.7C186.3,440.7,186.3,440.7,186.3,440.7L186.3,440.7L186.3,440.7z M174.4,378.4L174.4,378.4L174.4,378.4L174.4,378.4z
				 M73.5,362.9c-0.2,0-0.5,0.2-0.7,0.1c-1.1-0.6-2.2,0-3.4,0.1c-2.1-0.3-4-0.7-6-0.9c-10-1-20.4-1-30.3-0.9
				c-4.3,0.6-10.5-0.6-14.9-0.6c-5.6,0.3-9.8,0.3-15.4,1.1c1.1-2.3,1.3-3,1.8-5.1c2.7-11.5,7-23.5,8-35.6h0
				c-0.2-1.1,0.6-1.9,0.3-3.1c-0.4-2,0.3-4.5,0.7-6.3c1.7-9.7,1.5-19.5,1.8-29.3c-0.6-1.3-0.1-2.5-0.4-3.9c-0.7-1.3-0.4-2.8-0.2-4.2
				c-0.2-0.7-0.3-1.4,0-2.1c0.5-4.1-0.4-8.3-0.3-12.4c-0.2-7.7-1-15.5-2.4-22.9c-0.3-3.9,0.1-7.5-0.9-11.2
				c-0.4-11.9-3.3-23.3-3.7-34.9c-0.3-11.3-1.3-22.8-1.4-33.9c0.2-12,2-24.6,1.5-36.5c2.1-12.7,4.6-26,5.6-38.7
				c3.1-10.9,5.7-22.4,8.5-33.5l0,0h0c2.8-12.4,8.5-24.7,12.5-37c0,0,1-2.9,0.7-4.4c1.6,0.9,3.6,0.2,5.5,0.7c1.5-0.1,3,0.6,4.6,0.1
				c2.1-1.3,5.1,0.4,7-1c4.6,1,10,1.3,14.6,0.6c0.7,0.2,1.3-0.5,1.8,0.2c1.3,0.5,5.3-0.3,6-0.1c1.5,0,2.9,0.8,4.6,0.4
				c1.8-0.8,3.9,0,5.8-0.1c0.5,0.2,0.8-0.4,1.3-0.5c2.4,0.9,5.2,1.2,7.9,1.3c2.2,0.1,4.5,0.8,6.7,0.2c0.7,0.2,1.3-0.4,1.8,0.3
				c1.3,0.4,4-0.3,5.1-0.1c1.8,0.4,3.5,1.1,5.4,1c0.7-0.2,1.3-0.5,2-0.3c1.6,0.2,3.7,0.8,5.1,0c3.6,1.3,7.8,1.9,11.7,2
				c1.4,1,3.3-0.6,4.5,0.5c1.2,0.6,2.8-0.3,4.1-0.1l0,0c1.3,0.4,2.6,0.3,3.7,1.1c1.6,0.5,3.2-0.1,4.8,0.1c1.6,0.3,3.6,1,5.1,0.2
				c0.7,0.7,1.7,0.6,2.7,0.9c3.8,1,7.8,2,11.7,1.7c0.6,0.3,1.4-0.3,1.7,0.4c0.8,0.4,2.7,0.2,4.2,0.1c1.2,0.4,2.5,0.3,3.5,1.2
				c2.9,0.4,5.7,0.2,8.5,0.9c0.5,0.2,0.9-0.3,1.3-0.3c0.7,0.7,1.7,0.7,2.7,0.9c3.7,1.1,7.8,2.2,11.6,2.1c0.6,0.3,1.4-0.3,1.7,0.5
				c1.2,0.7,4.7,0,5.2,0.2c0.6,0.3,1.2,0.1,1.8-0.1c-1.8,1.6-1.7,4.8-4.1,7.1c-1.1,2-0.9,3.5-1.4,5.4c-0.6,1.7-1.9,3.8-1.6,5.7
				c-2.8,4.7-5,10.5-5.8,15.9c-0.4,0.7,0.1,1.6-0.7,1.9c-0.6,0.9-0.7,3.1-0.9,4.8c-1.3,3.1-2.6,6-2.7,9.4c-0.5,1.7-1.6,4-1,5.8
				c-2.3,5-3.9,10.9-4.2,16.4c-0.3,0.7,0.2,1.5-0.6,2c-0.7,1.4,0,3.2-0.4,4.7c0,0,0,0,0.1,0c-0.1,0-0.1,0-0.1,0
				c-1,3.3-2,6.3-1.8,9.8c-0.4,1.8-1.1,4.1-0.4,5.9c-0.7,0.9-0.7,2-0.9,3.1c-1.1,4.4-2,9.1-1.7,13.6c-0.3,0.7,0.3,1.5-0.4,2
				c-0.6,1.5,0,7.7-0.9,9.1c-0.3,3.5,0.3,6.5-0.2,10c-0.2,0.6,0.4,1,0.5,1.5c-0.6,0.9-0.5,2.1-0.7,3.2c-0.5,4.5-1.2,9.3-0.4,13.7
				c-0.2,0.8,0.5,1.5-0.2,2.1c-0.4,1.5,0.6,7.7-0.1,9.1c-0.2,1.9,0.6,3.7,0.7,5.5c0,1.8-0.4,4.3,0.7,5.9c-0.7,5.4-0.6,11.6,0.6,16.9
				c-0.1,0.8,0.6,1.4,0,2.1c-0.3,1.6,0.9,3.1,1,4.6l0,0c0,3.4-0.2,6.6,0.9,9.9c0.2,1.8,0,4.3,1.1,5.8c-0.5,5.4,0,11.5,1.3,16.8
				c-0.1,0.8,0.7,1.4,0,2c-0.3,1.5,1.3,7.5,0.7,9c-0.1,1.9,0.7,3.6,0.9,5.4c0.1,1.8-0.2,4.3,0.8,5.8c-0.8,4.4-0.6,9.2-0.1,13.6
				c-0.8,1.8,1.1,3.6,0.2,5.2c-0.4,1.5,0.7,3.1,0.6,4.6l0,0c-0.4,3.8-0.9,6.3-0.2,9.8c-0.1,1.8-0.6,4.2,0.2,5.8
				c-1.3,5.3-2.1,11.2-2,16.6c-0.3,0.7,0.3,1.5-0.4,2c-0.6,1.4,0.2,3.2-0.1,4.7l0,0c-1,3.7-1.9,6-1.8,9.7c-0.4,1.8-1.3,4-0.8,5.8
				c-2.2,5-3.9,10.8-4.6,16.1c-0.4,0.7,0.1,1.5-0.7,1.9c-0.8,1.3-0.6,5.4-0.9,5.9c-0.4,0.6-0.3,1.5-0.2,2.2
				c-1.7-0.8-5.4-1.9-7.3-1.3c-11.8-3.3-24.6-4.9-36.7-6c-9.8-2.3-20.7-3.9-30.7-3.9C93.7,364.2,83.4,363.4,73.5,362.9z
				 M320.6,122.6c-0.2,0.5-0.6,0.8-1,1c0,0-1.2,2.8-2.6,3.7c-1.4,1.8-1.4,3.3-2.2,5.1c-0.9,1.6-2.4,3.5-2.4,5.4
				c-3.5,4.2-6.5,9.7-8.1,14.9c-0.5,0.6-0.2,1.6-1,1.8c-1,1.3-1.1,4.4-2.1,5.6c-1.8,2.4-2.9,5-3.5,7.9c-0.7,1.7-2.2,3.7-1.9,5.6
				c-3,4.6-5.5,10.2-6.6,15.6c-0.4,0.7,0,1.6-0.9,1.9c-0.7,0.9-0.6,2.2-0.8,3.3c-1.2,4.1-3.2,6.4-3.5,10.7c-0.6,1.7-1.7,3.9-1.3,5.8
				c-1.5,2.5-2.7,5.6-3.4,8.6c-0.6,2.5-1.8,5-1.7,7.5c-0.4,0.7,0.1,1.6-0.7,1.9c-0.8,1.4-0.1,3.2-0.6,4.7l0,0
				c-1.2,3.2-2.5,6.3-2.3,9.7c-0.4,1.8-1.3,4.1-0.8,5.9c-2.1,5-3.4,11.1-3.5,16.5c-0.3,0.7,0.3,1.5-0.5,2c-0.6,1.4,0.2,3.2-0.1,4.7
				l0,0c-0.9,3.3-1.8,6.4-1.4,9.9c-0.2,1.8-1,4.2-0.2,5.9c-1.5,5.3-2.4,11.4-1.9,16.8c-0.2,0.7,0.4,1.5-0.3,2
				c-0.4,1.2,0.2,2.6,0.3,3.9c-0.3,4.1-1.4,6.7-0.5,10.7c-0.1,1.8-0.6,4.2,0.2,5.9c-1.3,5.3-1.7,11.4-1.2,16.8
				c-0.2,0.7,0.5,1.5-0.3,2c-0.4,1.6,0.6,4.4,0.1,5.9c-0.8,2.8-1,5.6-0.7,8.6c-0.2,1.8-0.9,4.2-0.1,5.9c-1.5,5.2-2.4,11.2-2.3,16.6
				c-0.3,0.7,0.3,1.5-0.4,2c-0.6,1.4,0.2,3.2-0.1,4.7l0,0c-1,3.6-1.8,6.1-1.7,9.7c-0.4,1.8-1.2,4.1-0.6,5.8
				c-1.3,2.6-2.2,5.8-2.8,8.7c-0.5,2.5-1.8,4.9-1.7,7.5c-0.4,0.7,0.1,1.6-0.7,1.9c-0.8,1.3-0.3,3-0.8,4.4c-0.7,1.7-0.9,2.8-2,4.2
				c-0.8,1.7-0.7,3.6-1.3,5.3c-0.6,1.7-1.9,3.8-1.6,5.6c-2.9,4.6-5.4,10.1-6.9,15.3c-0.5,0.6-0.1,1.5-1,1.8c-1,1.2-1.4,5.3-1.8,5.7
				c-0.5,0.6-0.5,1.4-0.5,2.1c-0.9-0.7-2.1-0.8-3.1-1.4c0,0-1.5-1-2.5-1c-0.7,0.1-1.4,0.2-2-0.3c-2.8-0.9-5.3-2.6-8.2-3.2
				c-7.8-2.4-15.7-6-23.7-6.9c-4.5-2.1-9.2-3.3-14-4.8c-6.3-2.1-12.9-3.8-19.3-4.8c-9.1-3.1-18.9-5.7-28.5-7.5
				c-10.9-1.8-22.1-5.6-33.4-6.7v0l0,0c-0.9,0.2-1.6-0.6-2.6-0.4c-0.5,0.1-1,0.3-1.4,0.2c-2-0.5-3.9-1.1-5.9-1.5
				c-8.8-1.2-17.5-3.5-26.5-2.7c1.9-2.5,2.6-4.1,3.1-6.8c0.6-1.1,1.4-2.1,1.6-3.3c5.1-8.9,8.5-19.2,11.4-29.1
				c-0.1-1.1,0.8-1.8,0.8-3c0-0.5-0.2-1.1,0-1.7c1.2-3.1,2.3-6.2,3.2-9.5c0.2,0.1,2.3,1,3.4,0.8c1.4-0.5,2.7,0.2,4,0.6
				c1.6-0.1,2.1,0.1,1.5,1.8c-0.6,1.9-1.3,4.2-1.2,6.1c-1.3,1.4-1.2,3.7-2.4,5.3l0.3,0l0,0c1.5,0.2,2.9,1,4.2,1.4
				c1.4,0.6,3,0.9,4.1,2.1c1.2,0.5,2.1,1.1,2.8,2.1c0.6,0.4,1.4,0.6,1.8,1.3c0.2,0.1,0.5,0.2,0.6,0.5c-0.1,1.4,1.6,2.1,2.3,3.2
				c0.3,0.2,1,2.1,1.1,2.4c0.4,1.4,1,2.7,0.7,4.2c0.3,1.6,0.7,3.2,1.3,4.7c0.2,2.2-0.6,4.6,0.2,6.6c-1.1,1.7-1.1,4-2.4,5.7
				c2.3,0.3,4.4,1.3,6.7,1.7c1.4,0,2.7,0.6,4.1,0.9c1.3-0.2,2.4,0.4,3.6,0.7c1.1-0.2,2.1,0,3.2,0c0.4,0.3,0.7,0.8,1.3,0.8h0
				c1.6,0,2.9,0,4.5,0.4c1.7,0.4,3.1,1.6,4.9,1.7c1.9-0.8,4.1,1.4,5.9,0.5c1.8,1.2,4.1,1.9,6.2,2.4c1.8,0.4,3.6,1.4,5.5,1.1
				c0.6,0.3,1.1-0.3,1.4,0.5c0.9,0.7,2.4-0.1,3.4,0.3l0,0c1,0.5,2.2,0.5,2.9,1.4c1.3,0.6,2.7,0.2,4,0.5c1.3,0.4,3,1.3,4.2,0.7
				c1.7,1.3,4,2.1,6.1,2.6c1.8,0.5,3.6,1.5,5.4,1.3c0.6,0.4,1.1-0.2,1.4,0.6c0.9,0.7,4,0.7,4.3,0.8c0.5,0.5,1.2,0.4,1.7,0.7
				c0.5,0.6,1.1,0.8,1.9,0.9c1,0.6,2.1,0,3.1,0.4c1.4,0.5,3.3,1.6,4.8,1c1.1,1.1,3.5,1.6,4.6,2.4c0,0,0-1.1,0.1-1.1
				c1.5-2.1,2.6-4.3,4.1-6.4c0.1-1,1.2-1.4,1.6-2.2c0.1-0.6,0.2-1,0.7-1.4c0.1-0.1,0.1-0.3,0.1-0.4c0.1-0.4,0.6-0.1,0.9-0.4
				c1.3-1.3,2-3,2.8-3.4c0.1-0.1,0.4,0.1,0.6,0.1c0.2,0,0.8-0.7,0.7-1.1c0.2-0.5,1-0.6,1.4-1.1c0.6-0.5,1.3-1.1,2.1-0.9
				c0.5-0.6,1.6-0.5,2-1.2c0.7,0.1,0.6,0,0.8-0.6c0.3,0,0.2-0.2,0.3-0.3c0.7,0.9,2.1-0.9,2.5-1c0.8,0.2,1.4-0.4,2.1-0.3
				c2,0.8,4-1.1,6-0.7c1.6-0.1,3.3,0.7,4.7,0c1.3,1,3.8,1.3,5,2.2c0.6-2.6,2.3-4.9,2.5-7.6c0.7-1.1,0.7-2.4,1-3.6
				c0.5-0.8,0.8-1.7,0.5-2.6c0-0.5,0.3-1,0.1-1.5c1.4-1.4,1.3-7.6,2.5-9.4c0.6-3.3,0.5-6.7,1.4-10c0.2-0.6-0.3-1-0.3-1.5
				c0.7-0.9,0.7-2,1-3.2c1.1-4.4,2.1-9.2,1.8-13.7c0.3-0.7-0.3-1.5,0.4-2c0.5-1.3,0-3.7,0.1-5.2c1.3-4.7,0.8-9.1,1.3-13.9
				c0.2-0.6-0.4-1-0.4-1.5c0.7-0.9,0.5-2.1,0.7-3.2c0.7-4.5,1.3-9.3,0.7-13.7c0.2-0.8-0.5-1.5,0.3-2.1c0.4-1.3-0.2-2.7-0.4-4
				c0.3-3.7,1.3-7,0.5-10.7c0.1-1.8,0.7-4.3-0.2-5.9c1.2-4.3,1.5-9.1,1.5-13.6c1-1.7-0.7-3.8,0.4-5.2c0.6-1.5-0.4-3.2-0.2-4.7l0,0
				c0.7-3.5,1.6-6.3,1.1-9.9c0.2-1.8,1-4.2,0.3-5.9c1.8-5.2,2.9-11.2,3.1-16.6c0.3-0.7-0.3-1.5,0.5-2c0.7-1.4-0.1-3.2,0.3-4.7l0,0
				c1-3.3,2.1-6.2,2.1-9.7c0.4-1.8,1.4-4.1,0.8-5.8c2.3-5,4-10.8,4.7-16.2c0.4-0.7-0.1-1.6,0.7-1.9c0.8-1.3,0.2-3.2,0.8-4.6l0,0
				c0.7-1.4,0.8-2.9,1.9-4.1c0.8-1.7,0.7-3.6,1.1-5.4c0.6-1.7,1.8-3.9,1.4-5.7c2.7-4.8,5-10.4,6.2-15.7c0.5-0.6,0.1-1.6,0.9-1.8
				c1-1.3,0.5-3.2,1.2-4.5l0.2,0.1c0,0-0.1,0-0.2-0.1c0.4-0.5,0.4-1.1,0.9-1.5c0.2-0.3,0.1-0.8,0.5-1.1c1.2-1,1.7-2.8,1.7-4.3
				c0.4-1.9,2.4-3.8,2-5.7c1.4-1.1,1.6-3.2,2.9-4.4c-1.6-0.4-2.7-2-4.2-2.7c-1.2-0.6-2.3-1.3-3.3-2.2c-1-0.3-1.6-1-2.2-1.7
				c-0.9-0.2-1.8-0.7-2.2-1.8c-0.4-0.9-1.5-1.3-2.2-2c-0.3-0.1-0.4-1.8-0.4-2c-0.6-1.2-1.6-2.7-1.5-4.1c-0.8-0.5-0.9-1.3-0.7-2.2
				c-0.3-0.9-0.1-1.6,0.3-2.4c0.2-1.7-0.2-3.4-0.1-5.1c0.4-1.5,0.9-3.3,1.2-4.8c0-0.8-0.6-1,0.3-1.6c1-1.5,1.3-3.5,2.6-4.9
				c-2.9-0.4-5.3-2.4-8.2-2.7c-1-0.6-2.1-0.9-3.3-1c-0.9-0.1-1.6-1-2.6-0.9c-0.7,0.2-1.4-0.1-2-0.2c-0.6,0.2-0.8-0.3-1.2-0.6
				c-1.4-0.6-5.8-1.1-6.4-1.5c-0.7,0.1-1.1-0.4-1.6-0.9c-1.5-0.7-3-0.4-4.5-0.7c-1.4-0.4-3.3-1.4-4.8-0.9c-3.1-1.9-7-3-10.6-3.6
				c-1.2-1.2-3.2,0.1-4.2-1.1c-1.1-0.7-2.7,0-3.8-0.4l0,0c-1.2-0.6-2.4-0.5-3.4-1.5c-1.6-0.7-3.3-0.1-4.9-0.7
				c1.1-3.6,2.3-5.8,2.8-9.8c1.1,0.4,2.2,0.5,3,1.3c1.6,0.6,3.2,0.3,4.7,0.6c1.5,0.4,3.5,1.4,5,0.8c0.7,0.8,1.6,0.8,2.6,1.2
				c3.6,1.4,7.6,2.9,11.4,3c0.6,0.3,1.4-0.2,1.7,0.6c0.9,0.6,2.1,0.3,3.2,0.4c2.8,0.7,4.3,2,7,2.5c2.4-0.6,4.7,1.9,7,1.1
				c2.1,1.4,4.8,2.4,7.4,3c2.2,0.6,4.2,1.8,6.5,1.7c0.6,0.4,1.4-0.1,1.6,0.7c1.1,0.8,2.8,0.2,4,0.7l0,0c1.2,0.7,2.5,0.7,3.5,1.8
				c1.5,0.8,3.2,0.5,4.7,0.9c1.5,0.5,3.4,1.6,5,1.1c4,2.4,9.1,4.3,13.7,5.1c0.6,0.4,1.4-0.1,1.6,0.7c1.1,0.8,4.7,0.7,5.2,1
				c0.5,0.4,1.2,0.3,1.8,0.2C321.5,121.4,320.7,121.8,320.6,122.6z"/>
			<path d="M135,182.6c-0.5-15.3-9.2-32.5-25-36.9c-15.6-8.4-35.1-2.3-46.2,10.3c-18.1,18.6-10.3,55.7,15,63.4
				C103.7,232.7,136.3,210.1,135,182.6z M131.4,182.6c-0.4,1.9,0,3-0.9,4.3c-0.5,1.7-0.1,3.6-0.5,5.3c-0.5,1.7-1.7,3.8-1.5,5.6
				c-3.4,4.6-6.9,9.3-11,13.3c-0.2,0.5-0.5,0.6-1,0.5c-1.4,0.6-2.1,2.3-3.5,3l0,0c-1.4,0.6-2.6,1.4-4.1,1.4
				c-1.9,0.4-3.3,1.8-4.9,2.2c-1.7,0.5-4.1,0.4-5.6,1.5c-5.4-0.6-10.9-1.4-16.2-2.6c-0.6-0.4-1.5,0-1.8-0.8c-1-0.9-5.1-1.8-6.8-3.4
				c-0.8-1.4-2.6-2.8-4.1-3.4c-2.1-1.2-2.9-4-5.1-5c-2.3-4.9-4.2-10.2-5.9-15.3c0.1-0.8-0.7-1.3-0.1-2c0.2-1.5-0.8-3-0.8-4.5h0
				c0.4-1.9,0-3,0.9-4.3c0.5-1.7,0.1-3.6,0.5-5.3c0.5-1.7,1.7-3.8,1.5-5.6c3.4-4.6,6.9-9.3,11-13.3c0.2-0.5,0.5-0.6,1-0.5
				c1.4-0.6,2.1-2.3,3.5-3l0,0c1.4-0.6,2.6-1.4,4.1-1.4c1.9-0.4,3.3-1.8,4.9-2.2c1.7-0.5,4.1-0.4,5.6-1.5c5.4,0.6,10.9,1.4,16.2,2.6
				c0.6,0.4,1.5,0,1.8,0.8c0.7,0.7,1.8,0.8,2.8,1c3.7,1.3,4.7,4.3,8,5.8c2.1,1.2,2.9,4,5.1,5c2.3,4.9,4.2,10.2,5.9,15.3
				c-0.1,0.8,0.7,1.3,0.1,2C130.3,179.6,131.4,181.1,131.4,182.6L131.4,182.6z"/>
			<path d="M67.5,352.6c0,0.1,0,0.2,0,0.2L67.5,352.6z"/>
			<path d="M184.7,60.4c-0.9-0.3-1.6-0.9-2.5-1.2c-1.5-0.4-2.6-1.2-4-1.8c-0.9-0.1-1.3-0.8-2-1.3c-0.4-0.2-0.9,0-1.2-0.3
				c-0.3-0.3-0.6-0.4-1-0.6c-0.1-1.4-1.8-1.6-2.7-2.4c-0.8-1.4-1.7-3-2.8-4.2c0.1-1-0.8-1.9-0.9-2.8c0.1-0.5,0-1-0.3-1.4
				c-0.2-0.9,0.5-1.7,0.1-2.6c-0.1-1.1-0.2-2.1-0.6-3.2c-0.2-1.9,0.5-4,0.4-5.9c-0.4-0.7-0.4-1.1,0.2-1.7c0.6-1.5,0.6-3.5,1.6-4.8
				l-0.1,0l0.1-0.1c-2.9-0.1-5.5-1.6-8.4-1.5c-1.9-0.8-3.8-0.3-5.7-1c-0.9,0.1-1.7,0.3-2.6,0.1c-0.5,0.3-0.8-0.1-1.2-0.4
				c-1.5-0.5-6-0.3-6.6-0.6c-1.4-0.2-2.7-1.1-4.3-0.9c-1.7,0.7-3.7-0.3-5.5-0.3c-0.5-0.2-0.8,0.4-1.2,0.4c-1.4-1-3.3-0.6-4.8-1.5
				c-2.6-0.3-5.2-0.4-7.7-0.9c-0.8,0.4-1.6,0.2-2.3,0.4c-0.3-0.2-0.6-0.7-1.1-0.6v0c-3.5,0.9-6.1-0.8-9.4-0.8
				c-2.1,1-4.8-0.9-6.8,0.3c-3.9-1.7-8.5-1.2-12.7-1.9c-0.8,0.4-1.6,0.3-2.3,0.5c-0.3-0.2-0.6-0.6-1.1-0.5v0c-1.1,0-2.1,0.6-3.2,0.5
				c0,0,0,0,0,0c0,0,0,0,0,0c-0.4-0.2-1,0-1.4-0.3c-0.3-0.1-0.7,0.2-1,0c-0.6-0.6-1.8-0.6-2.7-0.5c-1.4,0.8-3.2,0.1-4.8,0.2
				c-0.4,0-1,0.4-1.4,0.2c-1.2-0.4-2.6-0.2-3.7-0.8c0.3,1.6-1.3,2.4-1.6,3.9c-0.2,1.3-1.3,2.1-1.3,3.4c-0.1,0.6-1,0.8-0.9,1.5
				c0.2,0.5-0.1,0.9-0.3,1.3c0.1,0.6-0.3,0.4-0.7,0.6c-0.6,0.8-1.2,2.7-1.2,2.7c0,0.7-1,1.3-1.7,1.7c-0.8,0.7-0.8,1.9-1.4,2.6
				c-0.7,0.8-1.9,1.5-1.8,2.6c-1.2,0-1.8,1.3-3,1.4c-0.3,0.5-1,0.5-1.2,1c-0.3,0.4-0.7,0.3-1.1,0.5c-0.4,0.2-0.5,0.7-0.9,0.8
				c-0.3,0.1-0.8,0-1,0.3c-0.2,0.2-0.2,0.6-0.4,0.7c-0.5,0.1-0.5,0.8-1,0.3c-2,0.2-3.2,2.6-4.9,1.8c-0.8,0.1-2,0.6-2.5,1.2
				c-2.7,0.4-5.4,1.4-8.1,0.7c0.5,1-0.7,2-1,2.8c-0.1,0.8-0.5,1.5-0.5,2.3c-0.4,0.8-0.8,1.5-0.6,2.4c-0.2,1.2-0.6,2.9-1.2,4l0,0
				c-0.8,3.1-2.4,9.5-2.5,12.4c-0.4,1.8-1.5,4.1-0.9,5.9c-2.4,4.7-2.7,10.3-4,15.4c0.3,1,0,1.9,0.1,2.9c-0.3,0.4-0.7,0.7-0.7,1.3h0
				c0.3,5.3-2.1,9.2-1.6,14c-0.3,1.8-1,4.2-0.3,6c-1.1,2.8-1.6,6.1-1.8,9.2c-0.2,2.6-1,5.3-0.4,7.9c-0.2,0.8,0.4,1.5-0.3,2.1
				c-0.2,2.6,0.5,7.2-0.6,9.3c-0.4,1.9,0.3,3.7,0.3,5.6c-0.1,1.9-0.6,4.3,0.3,6c-0.8,2.9-1,6.3-0.9,9.3c0,2.6-0.4,5.4,0.4,7.9
				c-0.2,0.8,0.5,1.5-0.1,2.1c-0.3,1.1,0.2,2.2,0.5,3.2c0.2,4.7-0.6,7.5,0.7,11.6c0.1,1.8-0.2,4.4,0.9,5.9c-0.5,3-0.4,6.3,0,9.4
				c0.3,2.6,0.1,5.4,1.1,7.8c-0.1,0.8,0.7,1.4,0.1,2.1c-0.2,1.2,0.5,2.3,0.8,3.5c0.4,4.6-0.2,7.2,1.2,11.2c0.2,1.8,0,4.3,1.1,5.9
				c-0.5,3-0.3,6.3,0.1,9.3c0.3,2.6,0,5.3,0.9,7.7c-0.1,0.8,0.6,1.4,0,2.1c-0.3,1.6,0.9,3.1,0.9,4.7l0,0c-0.2,3.5-0.5,6.7,0.4,10
				c0,1.8-0.3,4.3,0.7,5.9c-0.9,5.5-1.1,11.6-0.4,17.1c-0.2,0.8,0.5,1.5-0.2,2.1c-0.5,3.7,1,6.5-0.6,9.3c-0.2,1.8,0,3.4,0.2,5.2
				c-0.2,1.9-1.1,4.4-0.2,6.2c-0.7,1.6-1.2,4.3-1.4,6c3.6,0.3,6.9,1.4,10.2,2.7c0.6,0.2,1,0.7,1.5,1.1c0.7,0.5,1.6,0.5,2.2,1.1
				c0.6,0.1,0.7,0.5,0.7,1c1.3,1.4,3.3,2.3,4,4.2l0,0c0.4,1.1,1,2.1,1.4,3.2c0,1.6,0.7,3.3,1.5,4.7c1.3,2.1,0.3,5.1,1.5,7.1
				c-0.4,1.9-0.6,4.3-1.4,6.2c3.1,0,5.9,0.9,9,0.7c1.3,0.5,2.7,0.1,4,0.2c1.1,0.3,2.1,0.4,3.1,0c0.5,0,1,0.2,1.5-0.1
				c0.4-0.1,0.6,0.3,0.9,0.4c1.6,0.4,3.3-0.5,4.9-0.3l0,0c1.1,0.3,2.2,0.1,3.1,0.9c1.4,0.4,2.7-0.3,4-0.2c1.3,0.2,3.1,0.7,4.3-0.1
				c1.9,0.9,4.3,1.3,6.5,1.4c1.8,0.1,3.8,0.8,5.6,0.3c0.6,0.3,1.1-0.4,1.5,0.3c1.4,0.3,3.8-0.3,5,0.3c0.6-0.2,1,0.2,1.5,0.5
				c1.4,0.4,2.7-0.2,4-0.1c1.3,0.2,3.1,0.8,4.3,0.1c1.9,1,4.3,1.5,6.5,1.6c1.8,0.2,3.7,1,5.6,0.5c0.6,0.3,1.1-0.4,1.4,0.4
				c1.6,0.7,4.2-0.3,5,0.4c0.8-0.1,1.3,0.3,2,0.7c0.8,0.1,1.6,0.2,2.4,0.3c0.6-0.1,1.2-0.5,1.9-0.2c1.5,0.2,3.5,1.1,4.9,0.3
				c1.3,1,3.3,0.7,4.7,1.6c0.2-0.2,0.9-2.8,1.5-3.4c0.4-1.5,1-2.9,1.8-4.2c0.1-1.4,1.5-2.1,1.4-3.6c0.2-0.6,0.3-1.3,1.1-1.3
				c0.9-0.8,1.8-3.1,1.8-3.1c-0.1-0.5,1-0.6,1.2-0.8c0.2,0,0.6-1.5,0.8-1.6c0.4-0.1,0.7-0.6,1-0.9c0.5-0.6,1.2-1.1,2-1.2
				c0.4-0.4,1.1-1.2,1.8-1.5c0.8,0,0.6-0.1,0.7-0.7c0.3-0.1,0.2-0.2,0.3-0.4c1.2,0.9,1.3-1,2.1-1.3c0.7-0.1,1.4-0.5,2.1-0.7
				c2.2,0.5,3.9-1.6,6-1.5c1.4-0.3,3.3,0.2,4.5-0.7c1.6,0.6,3.7,0.6,5.4,1.5l0-0.1c0,0,0.1,0,0.1,0c0.2-2.7,1.5-5.3,1.4-8
				c0.6-1.2,0.3-2.4,0.4-3.6c0.4-0.9,0.5-1.8,0.1-2.8c0.1-0.6,0-1.1,0-1.7c1.3-1.3-0.1-3.3,0.2-4.9l0,0c0.6-3.4,1.3-6.6,0.6-10
				c0.1-1.8,0.6-4.3-0.3-5.9c1.3-5.8,1-12.1,0.2-17.9c-0.3-0.4-0.2-0.8,0.1-1.2c0.4-1.5-0.8-3.1-0.8-4.7l0,0c0.2-3.5,0.5-6.6-0.5-10
				c-0.1-1.8,0.2-4.3-0.9-5.9c0.6-5.5,0.2-11.7-1.1-17c0.1-0.8-0.7-1.4-0.1-2.1c0.1-1.5-1.3-4.5-1.1-5.9c0.3-3,0-5.8-0.9-8.7
				c-0.2-1.8,0-4.3-1.1-5.8c0.5-5.5,0.1-11.5-1-16.9c0.1-0.8-0.6-1.4,0-2.1c0.3-1.3-0.5-2.6-0.8-3.8c0-2.3-0.3-3.3,0.3-5.2
				c-0.2-3.3-1-6.5-0.8-9.9c0.1-0.6-0.5-0.9-0.6-1.4c0.6-1,0.4-2.1,0.4-3.2c0.8-6.5,0.5-12.5,0.1-19.1c0.2-4.3,1.2-7.2,0.6-11.2
				c0.2-1.8,0.8-4.2,0-5.9c1.4-4.2,1.9-9,2.1-13.5c1-1.7-0.5-3.8,0.6-5.2c0.6-1.4-0.2-3.2,0.1-4.7l0,0c0.5-1.5,0.3-3,1.3-4.3
				c0.6-1.8,0.1-3.7,0.3-5.5c0.3-1.8,1.2-4.1,0.6-5.9c2-5.1,3.4-11,3.9-16.4c0.4-0.7-0.2-1.6,0.6-2c0.8-1.4,0.7-5.3,0.8-5.7
				c0.5-0.5,0.4-1.3,0.7-1.8c0.6-0.5,0.8-1.3,0.9-2.1c0.3-0.8,0.4-1.6,0.2-2.4c0.2-1.7,1.4-3.6,1.3-5.4c-0.3-0.4-0.3-0.8,0.2-1.1
				c0.7-1.1,1.1-3.2,1.9-4.2C186.8,61.4,185.3,60.8,184.7,60.4z M148.7,345.5C148.7,345.5,148.7,345.5,148.7,345.5
				C148.7,345.5,148.7,345.5,148.7,345.5C148.7,345.5,148.7,345.5,148.7,345.5L148.7,345.5C148.7,345.5,148.7,345.5,148.7,345.5z
				 M158,337.8L158,337.8L158,337.8L158,337.8z M180,68.9c-0.5,4.9-2.8,9.4-2.5,14.3c-2.5,8-4.4,16.4-5.4,24.8
				c-2.1,16.3-4.7,32.5-4.7,49.1h0c0.3,1-0.4,2,0,3.1c0.1,0.5,0.5,1.1,0.4,1.6c-0.2,2.4-0.6,4.7-0.7,7.1c0.1,10.8-0.7,22.2,1.6,32.6
				c0.1,13,1.2,26.8,4.1,39.4c0.2,15.7,3.1,31.6,3.1,47.2c-0.1,11-0.1,22.5-0.6,33.1c-0.3,0.5,0,1-0.1,1.5c-0.2,0.7-0.7,1.4-0.7,2.2
				c0,1.1-0.3,2.1-0.5,3.1c-0.1,1,0.2,2.1-0.1,3.1c-3.9-0.9-16.7,1-18.5,4.7c-0.5,0.1-1,0.1-1.1,0.6c-0.4,0-1-0.1-1.2,0.3
				c-0.1,0.2-0.3,0.2-0.5,0.2c-1.1,1.1-2.6,2-3.9,3.1c-0.7,1.3-2.2,2.3-2.7,3.8c-1,0.7-1.3,1.8-1.6,2.9c-0.6,0.9-1.6,1.7-1.8,2.8
				c-0.5,0.6-1.2,1.1-1.5,1.9c-0.2,0.9-0.8,1.6-1.2,2.4c-0.3,0.9-0.3,1.9-0.7,2.7c-4.3-0.9-8.6-1.1-12.8-1.7c-1.3-0.5-3.4-0.5-5.1,0
				c-4.8-1.5-9.7-1.7-14.7-2.6c-4.8-0.5-9.5-1-14.1-0.8c-10-1.9-20.6-2.6-30.6-2.4c-2.1-0.1-4.1-0.6-6.1-0.8c-1,0.2-2-0.2-2.9-0.3
				c-1.2,0-2.3,0.4-3.5,0.1c0.4-6.4-1.3-14-4.9-19.4l0,0c-1-1.4-1.9-2.9-3.1-4.1c-0.9-0.4-1.7-0.9-2.1-1.7c-1.9-1.5-3.6-3.5-5.9-4.2
				c-1.7-1.2-3.7-1.3-5.7-1.6c0.4-6.5,1.9-16.3,0.8-23.1c1.1-13.2,1.1-27.2-1.3-40.1c0.5-16-3.4-32-4.5-47.8
				c-0.7-13.3-2.7-26.6-2.5-39.7c-0.1-10.6,1.1-21.5,0.4-31.9c1.7-11.4,2.9-23.3,4.3-34.8h0c1.3-12.9,5.5-26,7.9-39
				c0.4-0.9,0.7-4.3,1-5.3c0.8-0.9,1.1-2.2,1.6-3.4c0.2-0.7-0.1-1.5,0.3-2.2c3.7,0.1,8-1.6,11.4-2.6c0.5-0.8,1.4-0.5,2-1.2
				c0.4-1.2,1.9-0.7,2.6-1.7c5.3-1.7,9.4-6.5,12.5-11.1c0.9-0.5,0.5-1.6,1.3-2.2c0.8-0.7,0.1-1.9,1-2.6c0.5-1.2,1.3-2.1,2.1-3.1
				c0.2-0.8,0.6-1.4,1.1-2c0.3-0.7,0.2-1.6,0.6-2.3c3.9,0.4,8.1,0.3,12,0.3v0c10.4-0.2,21.3,2.1,32,2.2c10.4,0.2,21.2,3,31.9,3.5v0
				c1-0.2,1.8,0.4,2.8,0.3c1.3-0.4,2.4-0.2,3.6,0.1c0.7,0.3,1.4,0.3,2.1,0.3c0.9,0.3,1.8,0.8,2.8,0.9c1.1-0.1,2.1,0.4,3.1,0.6
				c1.1,0.1,2.3-0.1,3.4,0.2c-1.5,5.8-1.2,12.4,0.3,18.3c0.2,1.8,1.7,3.4,2.8,4.7c0.7,1.6,1.8,3.1,3,4.3c1.4,0.6,2.5,1.5,3.5,2.6
				c0.6,0.2,1.2,0.4,1.5,1c1.1,1.1,2.6,1.4,3.8,2.3c1,0.4,2,0.3,3,0.9C181.6,63.6,180.5,67.2,180,68.9z"/>
			<path d="M82.1,17.3l0,0.1C82.1,17.4,82.1,17.3,82.1,17.3z"/>
			<path d="M45.6,43.1c0-0.1,0-0.1,0-0.1L45.6,43.1z"/>
			<path d="M124,358.2L124,358.2C124,358.2,124,358.2,124,358.2z"/>
		</g>
	</g>
</g>
</svg>
